<svg width="16" height="16" viewBox="0 0 16 16" fill="none" xmlns="http://www.w3.org/2000/svg">
<path d="M9.60156 8.20706L12.3111 14.3006L13.5659 12.8228C12.632 7.88611 12.7809 8.42758 12.2418 5.58287L15.7086 2.11588C16.2119 1.61251 16.0018 0.904798 15.5435 0.456848C15.0944 -0.00264635 14.3879 -0.211613 13.8846 0.291753L10.4178 3.75874C7.5755 3.21843 8.11347 3.36736 3.17705 2.43337L1.69935 3.68832L7.79369 6.3968C7.79369 6.3968 3.50606 10.6627 3.45065 10.7377L0.823122 10.2136L2.46617e-07 11.0368L2.68987 12.3748L3.62497 13.31L4.96298 16L5.7861 15.1768L5.26083 12.5503C5.33818 12.4926 9.60156 8.20706 9.60156 8.20706Z" fill="#828282"/>
</svg>
