<svg width="24" height="30" viewBox="0 0 24 30" fill="none" xmlns="http://www.w3.org/2000/svg">
<path d="M16.5502 0H0V30H24V7.2925L16.5502 0ZM16.8489 1.70625L22.2543 6.99938H16.8489V1.70625ZM1.0225 28.9987V1.00125H15.8296V8.00062H22.9775V28.9987H1.0225Z" fill="white"/>
<path d="M9.18973 1.00125C9.47184 1.00125 9.70097 0.77625 9.70097 0.500625C9.70097 0.224375 9.47184 0 9.18973 0H0.511249C0.229137 0 0 0.224375 0 0.500625C0 0.77625 0.229137 1.00125 0.511249 1.00125H9.18973Z" transform="translate(5.10547 17.5)" fill="white"/>
<path d="M4.08361 0H0.51125C0.229137 0 0 0.224375 0 0.500625C0 0.77625 0.229137 1.00125 0.51125 1.00125H4.08361C4.36573 1.00125 4.59486 0.77625 4.59486 0.500625C4.59486 0.224375 4.36573 0 4.08361 0Z" transform="translate(15.3184 15)" fill="white"/>
<path d="M0 0.500625C0 0.77625 0.229136 1.00125 0.511249 1.00125H5.61736C5.89884 1.00125 6.12861 0.77625 6.12861 0.500625C6.12861 0.224375 5.89884 0 5.61736 0H0.511249C0.229136 0 0 0.224375 0 0.500625Z" transform="translate(7.65918 15)" fill="white"/>
<path d="M0.1468 0.135239C0.0574435 0.230864 0 0.36024 0 0.492115C0 0.62149 0.0574435 0.750864 0.1468 0.840864C0.239349 0.936489 0.374022 0.992739 0.511249 0.992739C0.648476 0.992739 0.77549 0.93649 0.872506 0.845865C0.965055 0.750865 1.0225 0.62149 1.0225 0.492115C1.0225 0.36024 0.965055 0.230864 0.872506 0.135239C0.682942 -0.0472609 0.331897 -0.0428859 0.1468 0.135239Z" transform="translate(5.10547 15.0078)" fill="white"/>
<path d="M0.146801 0.136875C0.0548912 0.2325 -4.57739e-07 0.356875 -4.57739e-07 0.49375C-4.57739e-07 0.628125 0.0497851 0.7525 0.146801 0.8475C0.243817 0.938125 0.375938 0.994375 0.508058 0.994375C0.642732 0.994375 0.774852 0.938125 0.872507 0.8475C0.969523 0.7525 1.01931 0.628125 1.01931 0.49375C1.01931 0.361875 0.964417 0.2325 0.872507 0.136875C0.677836 -0.0456253 0.341472 -0.0456253 0.146801 0.136875Z" transform="translate(16.3408 17.5078)" fill="white"/>
<path d="M0.146801 0.136875C0.0548912 0.2325 -4.57739e-07 0.356875 -4.57739e-07 0.49375C-4.57739e-07 0.628125 0.0497851 0.7525 0.146801 0.8475C0.243817 0.938125 0.375938 0.994375 0.508058 0.994375C0.642732 0.994375 0.774852 0.938125 0.872507 0.842499C0.969523 0.7475 1.01931 0.623125 1.01931 0.49375C1.01931 0.361875 0.964417 0.2325 0.872507 0.136875C0.677836 -0.0456253 0.341472 -0.0456253 0.146801 0.136875Z" transform="translate(18.8945 17.5078)" fill="white"/>
<path d="M3.15844 0.0616354C2.04148 0.630386 1.6649 1.72164 1.52767 2.85226C1.31577 2.67851 1.10387 2.50539 0.891963 2.33226C0.393479 1.92164 -0.334781 2.62476 0.171362 3.03976C0.647507 3.43039 1.12621 3.82351 1.60235 4.21414C1.93935 4.49039 2.46018 4.31664 2.47486 3.86289C2.51251 2.77851 2.56485 1.49226 3.67416 0.92601C4.25753 0.627885 3.74181 -0.23649 3.15844 0.0616354Z" transform="translate(5.27832 20.0215)" fill="white"/>
<path d="M6.39723 0.169177C5.65174 0.122927 4.56222 1.24855 3.98842 0.247302C3.8563 0.0154269 3.52249 -0.072699 3.2908 0.066676C2.56764 0.501051 1.62238 1.12605 0.862203 0.317926C0.416057 -0.157699 -0.304543 0.550427 0.13905 1.02355C1.09389 2.03918 2.32319 1.73168 3.4076 1.15543C3.65205 1.42418 3.95395 1.61918 4.34521 1.69543C4.74923 1.77543 6.39978 1.12605 6.48914 1.24605C6.87337 1.76105 7.7612 1.26043 7.37186 0.740428C7.10762 0.386678 6.86316 0.198552 6.39723 0.169177Z" transform="translate(8.89844 21.8828)" fill="white"/>
<path d="M6.84602 8.15488L7.19004 7.9155L7.01324 7.53988C6.85368 7.198 6.59965 6.93175 6.27286 6.773L5.191 6.23112C5.68948 5.92112 6.04564 5.44987 6.26009 4.83175C6.60922 4.62238 6.82879 4.25112 6.82879 3.83862V3.50613C6.82879 3.16675 6.67943 2.85238 6.42476 2.63238C6.24286 1.68488 5.58481 0.657375 3.59534 0.657375C3.51811 0.657375 3.44024 0.659875 3.36557 0.66675C3.09877 0.68925 2.71007 0.66675 2.37562 0.447375C2.22116 0.344875 2.14138 0.26675 2.10436 0.218C1.94224 0.0173748 1.67034 -0.0532503 1.42843 0.0417497C1.18653 0.139875 1.04484 0.37675 1.0742 0.633C1.08952 0.759875 1.1093 0.911125 1.14441 1.07487C1.18653 1.28487 1.18909 1.3455 1.18653 1.3605C1.18398 1.37737 1.15398 1.44113 1.12909 1.48988C1.09462 1.5655 1.05186 1.658 0.999521 1.7805C0.887187 2.04612 0.807404 2.33425 0.757619 2.63987C0.508696 2.85925 0.361257 3.17175 0.361257 3.50613V3.83862C0.361257 4.25362 0.58082 4.62238 0.929951 4.83175C1.14441 5.44987 1.50056 5.91613 1.99457 6.22863L0.869954 6.7705C0.555928 6.93925 0.311473 7.20487 0.164672 7.54175L-6.57392e-08 7.913L0.333812 8.14738C1.29631 8.81863 2.42349 9.173 3.59534 9.173C4.76464 9.173 5.88798 8.82113 6.84602 8.15488ZM1.4061 7.62488L2.65518 7.02425C2.92197 6.89488 3.08664 6.63613 3.08664 6.3455V5.6355L2.77709 5.50612C2.31115 5.308 2.00925 4.92988 1.84714 4.34363L1.77501 4.07737L1.50566 3.99738C1.44567 3.97738 1.38376 3.92112 1.38376 3.83862V3.50613C1.38376 3.4355 1.43354 3.38425 1.47822 3.36238L1.71757 3.2355L1.74501 2.97175C1.77756 2.67362 1.84458 2.403 1.94479 2.16112C1.98947 2.05612 2.02713 1.978 2.05649 1.91237C2.13627 1.74612 2.18414 1.62425 2.20137 1.48487C2.57539 1.63612 2.99665 1.69737 3.4479 1.663C3.49513 1.6605 3.54492 1.658 3.59534 1.658C5.08632 1.658 5.3678 2.32488 5.44503 2.97675L5.47758 3.238L5.71438 3.35988C5.75906 3.38425 5.8082 3.4355 5.8082 3.50613V3.83862C5.8082 3.92112 5.74374 3.97738 5.68693 3.99738L5.41758 4.07737L5.34546 4.34363C5.18589 4.92988 4.88144 5.3105 4.41551 5.50612L4.10595 5.6355V6.348C4.10595 6.63363 4.26807 6.89237 4.52784 7.02175L5.76161 7.63987C4.42317 8.343 2.74007 8.3405 1.4061 7.62488Z" transform="translate(4.47266 3.82812)" fill="white"/>
</svg>
