<svg width="22" height="21" viewBox="0 0 22 21" fill="none" xmlns="http://www.w3.org/2000/svg">
<path d="M16.794 14.1646V1.10258C16.794 0.946927 16.9341 0.820313 17.1063 0.820313H19.331C19.5032 0.820313 19.6433 0.946927 19.6433 1.10258V14.1646H16.794ZM9.60217 14.1646V7.02069C9.60217 6.86503 9.74226 6.73841 9.91447 6.73841H12.1392C12.3113 6.73841 12.4515 6.86503 12.4515 7.02069V14.1646H9.60217ZM2.41034 14.1646V10.4648C2.41034 10.3092 2.55043 10.1825 2.72265 10.1825H4.94734C5.11956 10.1825 5.25965 10.3092 5.25965 10.4648V14.1646H2.41034ZM21.5462 14.1646H20.5509V1.10258C20.5509 0.494607 20.0036 2.85387e-07 19.331 2.85387e-07H17.1063C16.4336 2.85387e-07 15.8864 0.494648 15.8864 1.10258V14.1646H13.3591V7.02069C13.3591 6.41271 12.8119 5.9181 12.1392 5.9181H9.91452C9.24185 5.9181 8.69462 6.41275 8.69462 7.02069V14.1646H6.16733V10.4648C6.16733 9.85683 5.62005 9.36223 4.94743 9.36223H2.72269C2.05003 9.36223 1.50279 9.85687 1.50279 10.4648V14.1646H0.453797C0.203165 14.1646 0 14.3482 0 14.5747C0 14.8013 0.203165 14.9849 0.453797 14.9849H21.5462C21.7968 14.9849 22 14.8013 22 14.5747C22 14.3482 21.7968 14.1646 21.5462 14.1646Z" transform="translate(0 6.01562)" fill="#030404"/>
<path d="M0.453786 11.4195C0.569913 11.4195 0.686085 11.3795 0.774666 11.2994L8.61165 4.216L10.3034 5.74506C10.4806 5.90522 10.768 5.90522 10.9452 5.74506L15.7522 1.4004V2.78713C15.7522 3.01366 15.9554 3.19729 16.206 3.19729C16.4566 3.19729 16.6598 3.01366 16.6598 2.78713V0.451172C16.6598 0.444486 16.659 0.437965 16.6587 0.43132C16.6651 0.319389 16.6215 0.20557 16.5269 0.120094C16.4324 0.0346172 16.3064 -0.00479883 16.1826 0.000984375C16.1753 0.000697266 16.1681 0 16.1606 0H13.4151C13.1645 0 12.9613 0.183627 12.9613 0.410156C12.9613 0.636686 13.1645 0.820312 13.4151 0.820312H15.1104L10.6243 4.87504L8.93253 3.34597C8.84745 3.26907 8.732 3.22584 8.61165 3.22584C8.49131 3.22584 8.37586 3.26907 8.29077 3.34597L0.132906 10.7194C-0.0443018 10.8795 -0.0443018 11.1392 0.132906 11.2994C0.221533 11.3795 0.337659 11.4195 0.453786 11.4195Z" transform="translate(3.89062)" fill="#030404"/>
<path d="M0.453797 -1.00136e-07C0.704384 -1.00136e-07 0.907595 0.183627 0.907595 0.410156C0.907595 0.636685 0.704384 0.820312 0.453797 0.820312C0.203165 0.820312 6.64742e-08 0.636685 6.64742e-08 0.410156C6.64742e-08 0.183627 0.203165 -1.00136e-07 0.453797 -1.00136e-07Z" transform="translate(2.36133 12.0293)" fill="#030404"/>
</svg>
