<svg width="30" height="34" viewBox="0 0 30 34" fill="none" xmlns="http://www.w3.org/2000/svg">
<path d="M15 34C15.009 34 15.0175 33.9993 15.0267 33.9985L27.3402 33.998C28.8065 33.998 30 32.8696 30 31.4838V30.2167C30 27.9259 28.5686 25.1998 25.8334 24.4202C25.8264 24.418 25.8194 24.4165 25.8124 24.4145L21.515 23.2799C21.1511 23.1709 20.8632 22.9792 20.8012 22.8789L20.7984 20.5022C20.8018 20.498 20.8061 20.4943 20.8095 20.4901C22.2831 18.6989 23.0941 16.3787 23.0941 13.9562V12.1865C24.5641 7.3172 23.5285 3.09551 22.9964 1.86635C22.9948 1.86287 22.9927 1.85921 22.9914 1.85646C22.98 1.83135 22.9683 1.80698 22.9554 1.78334C22.9498 1.77271 22.9442 1.76116 22.9386 1.75053C22.926 1.72891 22.9125 1.7082 22.8991 1.68749C22.8908 1.67521 22.8838 1.66311 22.8752 1.65102C22.8625 1.63379 22.849 1.6173 22.8359 1.6008C22.8252 1.58724 22.8146 1.57295 22.8034 1.56012C22.7913 1.54637 22.7782 1.53355 22.7652 1.52072C22.7519 1.50642 22.7385 1.49195 22.7245 1.47838C22.7119 1.46629 22.6985 1.45547 22.685 1.44411C22.6704 1.4311 22.6556 1.41827 22.6399 1.40618C22.6253 1.39463 22.6089 1.384 22.5935 1.37319C22.5787 1.36311 22.5646 1.35248 22.5498 1.34313C22.5309 1.33104 22.5111 1.32023 22.4922 1.30941C22.4795 1.30227 22.4676 1.29512 22.4549 1.2887C22.4323 1.27734 22.4091 1.26726 22.3858 1.25792C22.3754 1.25297 22.3647 1.24784 22.3541 1.24362C22.3303 1.23427 22.3056 1.22639 22.2804 1.21851C22.2696 1.21577 22.2591 1.21137 22.2485 1.20862C22.2254 1.20202 22.2024 1.19707 22.1782 1.19212C22.1649 1.18919 22.1513 1.18571 22.138 1.18351C22.1184 1.17984 22.0978 1.17783 22.0776 1.1749C22.06 1.1727 22.0416 1.17068 22.0239 1.16921C22.0077 1.16775 21.9917 1.16775 21.9749 1.16702C21.9524 1.16628 21.9298 1.16628 21.9064 1.16702C21.8931 1.16702 21.8803 1.16848 21.8671 1.16921C21.8419 1.17123 21.8156 1.1727 21.7902 1.17636C21.786 1.1771 21.7819 1.1771 21.7783 1.17783C20.6666 1.33947 19.3115 1.00886 17.8759 0.659556C15.3372 0.0415872 12.4739 -0.653535 9.96546 1.18498C7.53938 1.39756 5.81945 3.46992 5.81945 6.27131C5.81945 8.30866 6.74871 11.9474 6.96228 12.755V13.7335C6.96228 16.262 7.82234 18.5993 9.20164 20.3426L9.19876 22.881C9.13676 22.9821 8.84893 23.1733 8.48487 23.2819L4.18746 24.4173C4.18043 24.4187 4.17341 24.4209 4.16638 24.423C1.43121 25.2018 4.73016e-07 27.9286 4.73016e-07 30.2194V31.486C4.73016e-07 32.8726 1.1933 34 2.66056 34L14.9733 33.9985C14.9823 33.9993 14.991 34 15 34ZM9.26923 13.3334C9.26923 12.1679 9.75423 10.4635 10.1169 9.38534C15.3415 9.50703 19.2841 10.7835 20.787 11.349V13.9562C20.787 16.0236 20.0226 17.9178 18.8292 19.2287C18.8277 19.2307 18.8257 19.2329 18.8236 19.2351C17.7984 20.3591 16.4572 21.052 15.0126 21.052C11.9529 21.052 9.26923 17.6323 9.26923 13.7342V13.3334ZM11.5059 22.3957C12.5732 23.0351 13.7651 23.3979 15.0126 23.3979C16.2378 23.3979 17.4196 23.0752 18.4932 22.4651L18.4939 22.8947C18.4939 23.476 18.7005 23.9635 19.0208 24.3621L15.0049 26.7719L11.0061 24.3328C11.3109 23.9406 11.5059 23.4637 11.5059 22.8991V22.3957ZM27.6927 30.2167V31.483C27.6927 31.5153 27.5752 31.652 27.3393 31.652L16.1531 31.6527V28.8063L21.3827 25.6679L25.2212 26.6817C26.8436 27.1497 27.6927 28.8129 27.6927 30.2167ZM10.378 3.51152C10.3843 3.51152 10.3906 3.51079 10.3971 3.51079C10.4286 3.51006 10.4596 3.50859 10.4914 3.50584C10.504 3.50437 10.5173 3.50218 10.5301 3.50016C10.5546 3.49723 10.5793 3.49356 10.6033 3.48935C10.6188 3.48568 10.6345 3.48147 10.6498 3.4778C10.6709 3.47285 10.692 3.46791 10.7132 3.46149C10.7293 3.45636 10.7455 3.44995 10.7617 3.44426C10.7808 3.43712 10.7997 3.4307 10.8187 3.42282C10.8363 3.41568 10.8525 3.40706 10.8688 3.39918C10.8863 3.39057 10.9039 3.38342 10.921 3.37334C10.9391 3.36399 10.9567 3.35263 10.9744 3.34109C10.9892 3.33247 11.0039 3.32404 11.018 3.3147C11.04 3.29967 11.0602 3.28391 11.0805 3.26741C11.0897 3.26027 11.0996 3.25459 11.1081 3.24744C12.8048 1.83703 15.007 2.37327 17.3379 2.94102C18.5932 3.24671 19.8815 3.55954 21.1327 3.56449C21.4333 4.69413 21.7289 6.69575 21.4117 9.07966C19.5346 8.38453 15.1301 7.02929 9.31357 7.02929C9.3114 7.02929 9.30852 7.02929 9.30654 7.02929C9.2777 7.03002 9.2494 7.03149 9.22129 7.03369C9.21065 7.03515 9.19948 7.03515 9.18885 7.03644C9.16506 7.03864 9.1418 7.04304 9.11874 7.04725C9.10378 7.05018 9.08828 7.05147 9.07368 7.05513C9.05656 7.05861 9.04034 7.06374 9.02412 7.06796C9.00375 7.07309 8.98266 7.07804 8.96284 7.08445C8.95238 7.08812 8.94319 7.09233 8.93256 7.096C8.90733 7.10516 8.88191 7.11377 8.8574 7.12459C8.85019 7.12734 8.84389 7.13174 8.83686 7.13467C8.81018 7.14676 8.78405 7.15959 8.75882 7.17388C8.74746 7.17975 8.73629 7.18763 8.72493 7.19404C8.70529 7.20614 8.68492 7.21842 8.6651 7.23198C8.64563 7.24554 8.62635 7.2613 8.60688 7.27633C8.59751 7.28348 8.58706 7.29063 8.57804 7.29851C8.55462 7.31793 8.53299 7.33864 8.511 7.36008C8.50668 7.36503 8.50109 7.3687 8.49694 7.37365C8.4764 7.39381 8.45819 7.41598 8.43981 7.43742C8.4335 7.44457 8.42719 7.45098 8.42161 7.45813C8.40737 7.47609 8.39403 7.49533 8.38069 7.51403C8.3715 7.52612 8.36231 7.5384 8.3533 7.55123C8.34411 7.56552 8.33564 7.58128 8.32717 7.59631C8.31599 7.61501 8.30392 7.63351 8.29418 7.65294C8.28842 7.66503 8.28283 7.67713 8.27724 7.68868C8.27021 7.70444 8.26264 7.71947 8.25543 7.73449C8.17577 7.18177 8.12585 6.67431 8.12585 6.27131C8.12657 4.99835 8.71574 3.51152 10.378 3.51152ZM2.65984 31.6548C2.42463 31.6548 2.30712 31.518 2.30712 31.486V30.2194C2.30712 28.8156 3.15619 27.1527 4.77898 26.6844L8.68618 25.6528L13.8469 28.8013V31.6535L2.65984 31.6548Z" fill="white"/>
</svg>
