<svg width="22" height="22" viewBox="0 0 22 22" fill="none" xmlns="http://www.w3.org/2000/svg">
<path d="M11.0512 0.575115L11.0512 0.575092C11.1082 0.518176 11.1575 0.5 11.2238 0.5C11.2907 0.5 11.3407 0.51858 11.3972 0.575092L12.4134 1.59125L12.7591 1.24555L12.4134 1.59125C12.4699 1.64776 12.4885 1.69776 12.4885 1.76462C12.4885 1.83058 12.4705 1.88046 12.4128 1.93854C12.4127 1.93866 12.4126 1.93878 12.4125 1.9389L4.89339 9.4572L4.89337 9.45722C4.83645 9.51413 4.78707 9.53231 4.72077 9.53231C4.65484 9.53231 4.60498 9.51433 4.54693 9.45675C4.54678 9.4566 4.54663 9.45645 4.54648 9.4563L0.575897 5.48494L0.574941 5.48399C0.518203 5.42755 0.5 5.37869 0.5 5.31154C0.5 5.24543 0.518 5.1965 0.574943 5.13986L0.576129 5.13867L1.59125 4.12201C1.59132 4.12194 1.5914 4.12186 1.59148 4.12179C1.59149 4.12177 1.5915 4.12176 1.59151 4.12175C1.64696 4.0664 1.69654 4.04769 1.76462 4.04769C1.83222 4.04769 1.88123 4.06605 1.93716 4.12196C1.93718 4.12198 1.9372 4.122 1.93722 4.12201L4.36639 6.55196L4.71992 6.9056L5.07353 6.55204L11.0512 0.575115Z" transform="translate(5.7041 6)" fill="black" stroke="white"/>
<path fill-rule="evenodd" clip-rule="evenodd" d="M20 5C20 2.24 17.76 4.10814e-08 15 4.10814e-08H5C2.24077 4.10814e-08 2.05407e-08 2.24 2.05407e-08 5V15C2.05407e-08 17.7592 2.24077 20 5 20H15C17.76 20 20 17.7592 20 15V5V5Z" transform="translate(1 1)" stroke="black" stroke-miterlimit="1.5" stroke-linecap="round" stroke-linejoin="round"/>
</svg>
