<svg width="48" height="35" viewBox="0 0 48 35" fill="none" xmlns="http://www.w3.org/2000/svg">
<path d="M14.2768 31.7467C14.2853 31.7467 14.2934 31.7461 14.3021 31.7454L26.0218 31.7449C27.4176 31.7449 28.5533 30.6913 28.5533 29.3973V28.2142C28.5533 26.0752 27.1911 23.5298 24.5879 22.8018C24.5812 22.7998 24.5745 22.7984 24.5678 22.7965L20.4776 21.7371C20.1311 21.6353 19.8571 21.4563 19.7981 21.3627L19.7954 19.1435C19.7988 19.1395 19.8027 19.1361 19.8062 19.1322C21.2087 17.4596 21.9804 15.2933 21.9804 13.0312V11.3789C23.3797 6.83227 22.394 2.89036 21.8875 1.74267C21.8861 1.73942 21.884 1.73599 21.8827 1.73343C21.872 1.70998 21.8607 1.68722 21.8485 1.66515C21.8432 1.65523 21.8379 1.64444 21.8324 1.63452C21.8204 1.61433 21.8077 1.59499 21.795 1.57565C21.7869 1.56419 21.7803 1.5529 21.7722 1.5416C21.7602 1.52552 21.7473 1.51012 21.7346 1.49472C21.7247 1.48205 21.7146 1.46871 21.7038 1.45673C21.6924 1.44389 21.6797 1.43192 21.6676 1.41994C21.6549 1.40659 21.6422 1.39307 21.6288 1.38041C21.6168 1.36911 21.6039 1.35902 21.5912 1.34841C21.5772 1.33626 21.5631 1.32428 21.5483 1.31299C21.5343 1.30221 21.5188 1.29228 21.5041 1.28219C21.49 1.27277 21.4766 1.26285 21.4626 1.25412C21.4446 1.24283 21.4257 1.23273 21.4077 1.22264C21.3957 1.21596 21.3842 1.20929 21.3722 1.2033C21.3507 1.19269 21.3286 1.18328 21.3065 1.17455C21.2963 1.16993 21.2864 1.16514 21.2763 1.1612C21.2535 1.15248 21.2301 1.14512 21.2059 1.13776C21.1958 1.13519 21.1859 1.13109 21.1758 1.12852C21.1536 1.12236 21.1317 1.11774 21.1088 1.11312C21.096 1.11038 21.0833 1.10713 21.0706 1.10508C21.0519 1.10165 21.0323 1.09977 21.013 1.09703C20.9961 1.09498 20.9788 1.0931 20.962 1.09173C20.9466 1.09036 20.9313 1.09036 20.9152 1.08968C20.8937 1.08899 20.8723 1.08899 20.8502 1.08968C20.8375 1.08968 20.8253 1.09104 20.8126 1.09173C20.7886 1.09361 20.7637 1.09498 20.7395 1.0984C20.7356 1.09909 20.7315 1.09909 20.7282 1.09977C19.6701 1.2507 18.3802 0.941999 17.014 0.615846C14.5977 0.0388311 11.8725 -0.610224 9.48496 1.10645C7.17586 1.30494 5.53885 3.23996 5.53885 5.85569C5.53885 7.75803 6.42331 11.1556 6.62642 11.9097V12.8233C6.62642 15.1843 7.44518 17.3667 8.75797 18.9944L8.75523 21.3646C8.69622 21.459 8.42227 21.6375 8.07576 21.739L3.98556 22.7991C3.97887 22.8005 3.97218 22.8025 3.96549 22.8044C1.3622 23.5316 0 26.0777 0 28.2167V29.3993C0 30.694 1.13576 31.7467 2.53227 31.7467L14.2512 31.7454C14.2599 31.7461 14.268 31.7467 14.2768 31.7467ZM8.8223 12.4498C8.8223 11.3615 9.28391 9.77005 9.62905 8.76335C14.6017 8.87698 18.3541 10.0688 19.7847 10.5969V13.0312C19.7847 14.9616 19.0571 16.7303 17.9213 17.9543C17.9199 17.9562 17.9179 17.9583 17.9158 17.9603C16.9403 19.0098 15.6637 19.6568 14.2888 19.6568C11.3765 19.6568 8.8223 16.4637 8.8223 12.824V12.4498ZM10.9511 20.9115C11.967 21.5085 13.1014 21.8473 14.2888 21.8473C15.4547 21.8473 16.5797 21.546 17.6015 20.9763L17.6022 21.3774C17.6022 21.9202 17.7986 22.3754 18.1035 22.7476L14.2814 24.9976L10.4753 22.7202C10.7655 22.354 10.9511 21.9087 10.9511 21.3815V20.9115ZM26.3575 28.2142V29.3966C26.3575 29.4267 26.2456 29.5544 26.0211 29.5544L15.3743 29.555V26.8972L20.3517 23.9668L24.005 24.9134C25.5493 25.3505 26.3575 26.9034 26.3575 28.2142ZM9.87761 3.27881C9.88362 3.27881 9.88962 3.27812 9.8958 3.27812C9.92582 3.27744 9.95532 3.27607 9.98551 3.2735C9.99752 3.27213 10.0102 3.27008 10.0224 3.2682C10.0457 3.26546 10.0692 3.26204 10.092 3.2581C10.1068 3.25468 10.1215 3.25074 10.1363 3.24732C10.1564 3.2427 10.1764 3.23808 10.1965 3.23209C10.2119 3.2273 10.2274 3.22131 10.2428 3.21601C10.2608 3.20933 10.279 3.20334 10.297 3.19598C10.3138 3.18931 10.3293 3.18127 10.3447 3.17391C10.3614 3.16587 10.3782 3.15919 10.3943 3.14978C10.4116 3.14105 10.4284 3.13045 10.4452 3.11967C10.4593 3.11162 10.4734 3.10375 10.4868 3.09502C10.5075 3.08099 10.5269 3.06628 10.5463 3.05088C10.555 3.0442 10.5645 3.0389 10.5725 3.03222C12.1874 1.71529 14.2834 2.21598 16.502 2.74611C17.6967 3.03154 18.9229 3.32364 20.1137 3.32826C20.3999 4.38304 20.6812 6.25201 20.3791 8.47793C18.5927 7.82887 14.4006 6.56344 8.8645 6.56344C8.86244 6.56344 8.85969 6.56344 8.85781 6.56344C8.83036 6.56413 8.80343 6.5655 8.77667 6.56755C8.76655 6.56892 8.75591 6.56892 8.74579 6.57012C8.72315 6.57217 8.70102 6.57628 8.67889 6.58021C8.66483 6.58295 8.65007 6.58415 8.63601 6.58757C8.61988 6.59082 8.60445 6.59561 8.58901 6.59955C8.56962 6.60434 8.54955 6.60896 8.53068 6.61495C8.52073 6.61837 8.51198 6.62231 8.50186 6.62573C8.47785 6.63429 8.45366 6.64233 8.43033 6.65242C8.42347 6.65499 8.41747 6.6591 8.41078 6.66184C8.38539 6.67313 8.36052 6.68511 8.3365 6.69846C8.32569 6.70393 8.31506 6.71129 8.30425 6.71728C8.28555 6.72857 8.26617 6.74004 8.2473 6.7527C8.2286 6.76536 8.21042 6.78008 8.19172 6.79411C8.18297 6.80079 8.17302 6.80746 8.16427 6.81482C8.14214 6.83296 8.12139 6.85229 8.10063 6.87231C8.09652 6.87693 8.0912 6.88036 8.08725 6.88498C8.0677 6.9038 8.05037 6.9245 8.03287 6.94453C8.02687 6.9512 8.02087 6.95719 8.01555 6.96386C8.002 6.98063 7.9893 6.9986 7.97661 7.01605C7.96786 7.02735 7.95911 7.03881 7.95054 7.05079C7.94179 7.06414 7.93372 7.07886 7.92566 7.09289C7.91503 7.11034 7.90353 7.12762 7.89427 7.14576C7.88878 7.15706 7.88346 7.16835 7.87814 7.17913C7.87145 7.19385 7.86408 7.20788 7.85739 7.22191C7.78157 6.70581 7.73405 6.23198 7.73405 5.85569C7.73474 4.6671 8.2955 3.27881 9.87761 3.27881ZM2.53159 29.5569C2.30773 29.5569 2.19588 29.4293 2.19588 29.3993V28.2167C2.19588 26.9059 3.00401 25.3532 4.54855 24.916L8.26737 23.9528L13.1791 26.8926V29.5557L2.53159 29.5569Z" transform="translate(19.4463)" fill="white"/>
<path d="M4.22146 24.017C3.82743 23.0485 3.48846 22.0421 3.21537 21.0252C-0.168424 8.4277 4.97434 10.0032 16.9593 5.49523L15.4822 8.8235C15.2366 9.37639 15.4868 10.0236 16.0407 10.2679C16.5951 10.5135 17.2437 10.2633 17.4894 9.71041L19.8165 4.46919C20.1028 4.20242 20.2356 3.79054 20.127 3.38618C20.0704 3.17519 19.9554 2.99552 19.8043 2.8593C19.704 2.75133 19.5825 2.66337 19.4448 2.60245L13.7673 0.0940143C13.2131 -0.150858 12.5652 0.0991482 12.3195 0.652035C12.2135 0.889891 12.2 1.14469 12.2627 1.37844C12.3458 1.68696 12.5624 1.95716 12.8784 2.09697L16.0486 3.49724C3.10421 8.4443 -2.57033 7.94651 1.09497 21.5919C1.39156 22.6961 1.75951 23.7893 2.18751 24.841C2.41565 25.4014 3.05567 25.6711 3.61763 25.4435C4.17926 25.2159 4.4508 24.5786 4.22146 24.017Z" transform="translate(0 9.47461)" fill="white"/>
</svg>
