<svg width="26" height="20" viewBox="0 0 26 20" fill="none" xmlns="http://www.w3.org/2000/svg">
<path d="M7.73336 18.1424C7.738 18.1424 7.74237 18.1421 7.74711 18.1417L14.0953 18.1414C14.8514 18.1414 15.4666 17.5393 15.4666 16.7998V16.1237C15.4666 14.9013 14.7288 13.4467 13.3186 13.0307C13.315 13.0295 13.3114 13.0287 13.3077 13.0276L11.0922 12.4222C10.9045 12.364 10.7561 12.2617 10.7241 12.2082L10.7227 10.94C10.7245 10.9377 10.7266 10.9358 10.7285 10.9335C11.4882 9.97774 11.9062 8.73971 11.9062 7.44702V6.50276C12.6642 3.90447 12.1303 1.65177 11.8559 0.995889C11.8551 0.994031 11.854 0.992075 11.8533 0.990608C11.8475 0.977211 11.8414 0.964206 11.8348 0.951591C11.8319 0.945919 11.829 0.939758 11.8261 0.934086C11.8196 0.922547 11.8127 0.911496 11.8058 0.900446C11.8014 0.893894 11.7978 0.88744 11.7934 0.880986C11.7869 0.871794 11.78 0.862992 11.7731 0.854191C11.7677 0.846955 11.7622 0.839327 11.7564 0.832482C11.7502 0.825147 11.7434 0.818302 11.7368 0.811457C11.7299 0.803829 11.723 0.796104 11.7158 0.788867C11.7093 0.782413 11.7023 0.776643 11.6954 0.77058C11.6878 0.763637 11.6802 0.756792 11.6722 0.750338C11.6646 0.744177 11.6562 0.738506 11.6482 0.732736C11.6406 0.727357 11.6333 0.721685 11.6257 0.716698C11.616 0.710244 11.6058 0.704475 11.596 0.698705C11.5895 0.694891 11.5833 0.691077 11.5768 0.687654C11.5651 0.681591 11.5532 0.676213 11.5412 0.671225C11.5357 0.668585 11.5303 0.665847 11.5248 0.663598C11.5125 0.658611 11.4998 0.654406 11.4867 0.650201C11.4812 0.648734 11.4759 0.646387 11.4704 0.64492C11.4584 0.6414 11.4465 0.638759 11.4341 0.636118C11.4272 0.634554 11.4203 0.632696 11.4134 0.631523C11.4033 0.629567 11.3927 0.628491 11.3822 0.626927C11.3731 0.625753 11.3637 0.624677 11.3546 0.623895C11.3462 0.623112 11.338 0.623113 11.3292 0.622722C11.3176 0.622331 11.306 0.622331 11.294 0.622722C11.2871 0.622722 11.2805 0.623503 11.2737 0.623895C11.2607 0.62497 11.2472 0.625753 11.2341 0.627709C11.2319 0.6281 11.2297 0.6281 11.2279 0.628491C10.6548 0.714742 9.95607 0.538328 9.21606 0.35194C7.90721 0.022191 6.43101 -0.348727 5.13776 0.632305C3.88698 0.745742 3.00026 1.85155 3.00026 3.34638C3.00026 4.43351 3.47935 6.37514 3.58936 6.8061V7.3282C3.58936 8.67742 4.03286 9.92463 4.74397 10.8548L4.74249 12.2093C4.71052 12.2633 4.56213 12.3653 4.37443 12.4233L2.15888 13.0291C2.15525 13.0299 2.15163 13.031 2.14801 13.0321C0.737869 13.4477 0 14.9027 0 16.1251V16.801C0 17.5408 0.615215 18.1424 1.37167 18.1424L7.71951 18.1417C7.72425 18.1421 7.72862 18.1424 7.73336 18.1424ZM4.77882 7.11473C4.77882 6.49278 5.02886 5.58333 5.21581 5.00803C7.90935 5.07296 9.94195 5.75407 10.7169 6.05585V7.44702C10.7169 8.55019 10.3227 9.56095 9.70751 10.2604C9.70677 10.2615 9.70565 10.2627 9.70454 10.2639C9.17611 10.8636 8.48461 11.2334 7.73986 11.2334C6.16238 11.2334 4.77882 9.40859 4.77882 7.32859V7.11473ZM5.93194 11.9504C6.4822 12.2916 7.09668 12.4852 7.73986 12.4852C8.37143 12.4852 8.98079 12.313 9.53431 11.9874L9.53468 12.2166C9.53468 12.5268 9.64108 12.787 9.80619 12.9997L7.73587 14.2855L5.67418 12.984C5.8314 12.7747 5.93194 12.5203 5.93194 12.219V11.9504ZM14.2772 16.1237V16.7994C14.2772 16.8166 14.2166 16.8896 14.095 16.8896L8.32785 16.8899V15.3711L11.024 13.6964L13.0029 14.2374C13.8394 14.4871 14.2772 15.3746 14.2772 16.1237ZM5.35045 1.87375C5.35371 1.87375 5.35696 1.87336 5.3603 1.87336C5.37656 1.87297 5.39255 1.87219 5.4089 1.87072C5.4154 1.86994 5.42228 1.86877 5.42888 1.86769C5.44151 1.86613 5.45424 1.86417 5.4666 1.86192C5.47459 1.85996 5.48258 1.85772 5.49057 1.85576C5.50145 1.85312 5.51232 1.85048 5.52319 1.84706C5.53155 1.84432 5.53992 1.8409 5.54828 1.83786C5.55803 1.83405 5.56788 1.83063 5.57764 1.82642C5.58675 1.82261 5.59511 1.81801 5.60347 1.81381C5.61248 1.80921 5.62159 1.8054 5.63032 1.80002C5.63971 1.79503 5.64882 1.78897 5.65792 1.78281C5.66554 1.77821 5.67316 1.77371 5.68041 1.76873C5.69165 1.76071 5.70215 1.7523 5.71265 1.7435C5.71739 1.73968 5.7225 1.73665 5.72687 1.73284C6.60161 0.980243 7.73698 1.26638 8.9387 1.56933C9.58588 1.73245 10.2501 1.89937 10.8951 1.90201C11.0501 2.50479 11.2025 3.57286 11.0389 4.84492C10.0712 4.474 7.80044 3.75084 4.80167 3.75084C4.80056 3.75084 4.79907 3.75084 4.79805 3.75084C4.78318 3.75123 4.7686 3.75201 4.7541 3.75318C4.74862 3.75397 4.74286 3.75397 4.73737 3.75465C4.72511 3.75583 4.71312 3.75817 4.70114 3.76042C4.69352 3.76199 4.68553 3.76267 4.67791 3.76463C4.66917 3.76648 4.66081 3.76922 4.65245 3.77147C4.64195 3.77421 4.63108 3.77685 4.62085 3.78027C4.61547 3.78223 4.61073 3.78448 4.60524 3.78643C4.59224 3.79132 4.57913 3.79592 4.5665 3.80169C4.56278 3.80316 4.55953 3.8055 4.5559 3.80707C4.54215 3.81352 4.52868 3.82037 4.51567 3.828C4.50982 3.83112 4.50406 3.83533 4.4982 3.83875C4.48807 3.84521 4.47757 3.85176 4.46735 3.85899C4.45722 3.86623 4.44738 3.87464 4.43725 3.88266C4.43251 3.88647 4.42712 3.89029 4.42238 3.89449C4.41039 3.90486 4.39915 3.91591 4.38791 3.92735C4.38568 3.92999 4.3828 3.93195 4.38066 3.93459C4.37007 3.94534 4.36068 3.95718 4.3512 3.96862C4.34795 3.97243 4.3447 3.97585 4.34182 3.97967C4.33448 3.98925 4.3276 3.99952 4.32073 4.00949C4.31599 4.01595 4.31125 4.0225 4.3066 4.02935C4.30187 4.03697 4.2975 4.04538 4.29313 4.0534C4.28737 4.06338 4.28114 4.07325 4.27613 4.08362C4.27315 4.09007 4.27027 4.09653 4.26739 4.10269C4.26377 4.1111 4.25977 4.11912 4.25615 4.12714C4.21508 3.8322 4.18934 3.56142 4.18934 3.34638C4.18971 2.66713 4.49346 1.87375 5.35045 1.87375ZM1.3713 16.891C1.25004 16.891 1.18945 16.8181 1.18945 16.801V16.1251C1.18945 15.3761 1.6272 14.4887 2.46384 14.2389L4.47823 13.6884L7.13877 15.3684V16.8903L1.3713 16.891Z" transform="translate(10.5342)" fill="black"/>
<path d="M2.28666 13.7251C2.07322 13.1716 1.88961 12.5965 1.74169 12.0153C-0.0912309 4.81621 2.69448 5.71657 9.18644 3.14038L8.38631 5.0424C8.25325 5.35836 8.38882 5.72821 8.68886 5.86785C8.98917 6.00818 9.3405 5.86521 9.47356 5.54925L10.7341 2.55403C10.8892 2.40157 10.9611 2.16619 10.9023 1.93511C10.8716 1.81454 10.8094 1.71186 10.7275 1.63402C10.6731 1.57231 10.6074 1.52205 10.5327 1.48724L7.4574 0.0537268C7.15718 -0.0862112 6.80623 0.0566607 6.67317 0.372621C6.61574 0.50855 6.6084 0.654159 6.64241 0.787741C6.68739 0.964057 6.80474 1.11847 6.9759 1.19836L8.69313 1.99858C1.68147 4.8257 -1.39228 4.54123 0.593116 12.3392C0.753773 12.9703 0.953084 13.5949 1.18492 14.196C1.3085 14.5162 1.65518 14.6704 1.95958 14.5403C2.2638 14.4102 2.41089 14.0461 2.28666 13.7251Z" transform="translate(0 5.41211)" fill="black"/>
</svg>
