<svg width="20" height="20" viewBox="0 0 20 20" fill="none" xmlns="http://www.w3.org/2000/svg">
<path d="M19.2706 2.90393e-07H0.696322C0.306034 2.90393e-07 3.41543e-10 0.328505 3.41543e-10 0.708696C3.41543e-10 1.08975 0.323436 1.41826 0.696322 1.41826H19.288C19.6785 1.41826 19.9834 1.08975 19.9834 0.708696C19.9834 0.328505 19.6611 2.90393e-07 19.2706 2.90393e-07Z" transform="translate(0.0166016 18.5801)" fill="#4F4F4F"/>
<path d="M0.0165538 12.3008L0 15.6747C0 15.8648 0.0679132 16.0549 0.203739 16.1935C0.33999 16.3322 0.508924 16.4014 0.696322 16.4014L3.99011 16.3845C4.17666 16.3845 4.34644 16.3151 4.48248 16.1767L15.8575 4.58452C16.1294 4.30835 16.1294 3.85809 15.8575 3.56397L12.5977 0.207775C12.3258 -0.0692584 11.8848 -0.0692584 11.5964 0.207775L9.3215 2.54364L0.220506 11.7991C0.10187 11.9375 0.0165538 12.1107 0.0165538 12.3008ZM12.1053 1.73005L14.3976 4.06592L13.1077 5.38037L10.8154 3.0445L12.1053 1.73005ZM1.42596 12.6124L9.81303 4.06592L12.1053 6.40178L3.71825 14.9306L1.40941 14.9483L1.42596 12.6124Z" fill="#4F4F4F"/>
</svg>
