<svg width="12" height="12" viewBox="0 0 12 12" fill="none" xmlns="http://www.w3.org/2000/svg">
<path d="M8.09708 3.51999e-08H0.210913C0.0955699 3.51999e-08 0 0.0929336 0 0.211572V8.09774C0 8.21308 0.0955699 8.30865 0.210913 8.30865H8.09972C8.21572 8.30865 8.30799 8.21308 8.30799 8.09774V0.211572C8.30799 0.0929336 8.21572 3.51999e-08 8.09708 3.51999e-08ZM7.8888 7.88617H0.422485V0.422485H7.8888V7.88617Z" transform="translate(0 3.69141)" fill="black"/>
<path d="M8.09708 -1.13143e-08H0.210913C0.0922744 -1.13143e-08 1.55885e-07 0.0949108 1.55885e-07 0.210913V2.82689C1.55885e-07 2.94289 0.0922744 3.03517 0.210913 3.03517C0.326915 3.03517 0.419189 2.94289 0.419189 2.82689V0.421826H7.88551V7.8888H5.48374C5.3651 7.8888 5.27282 7.98108 5.27282 8.09972C5.27282 8.21572 5.3651 8.30799 5.48374 8.30799H8.09708C8.21242 8.30799 8.30799 8.21572 8.30799 8.09972V0.210913C8.30799 0.0949108 8.21242 -1.13143e-08 8.09708 -1.13143e-08Z" transform="translate(3.69238)" fill="black"/>
</svg>
