<svg width="14" height="18" viewBox="0 0 14 18" fill="none" xmlns="http://www.w3.org/2000/svg">
<path d="M2.8077 16.3734C1.95424 15.4345 1.10074 14.4582 0.557626 13.294C0.0144753 12.0547 -0.140643 10.6277 0.13086 9.27575C0.402435 7.92383 1.02316 6.64699 1.91543 5.55795C1.83785 6.49676 2.18701 7.47318 2.8465 8.18668C2.45854 6.3841 3.07927 4.43134 4.32073 3.00431C5.56215 1.57725 7.2691 0.638435 9.05367 2.1824e-10C8.16141 0.901287 8.04502 2.32835 8.39418 3.53005C8.74333 4.73176 9.48041 5.78327 10.1399 6.87231C10.7994 7.96135 11.4202 9.08796 11.4589 10.3272C11.8081 9.68883 12.196 9.05043 12.4288 8.3369C12.6616 7.62337 12.778 6.87231 12.584 6.15878C13.2823 6.98497 13.6702 7.81116 13.8642 8.86264C14.0582 9.91416 14.0194 11.0032 13.903 12.0547C13.7479 13.2189 13.4375 14.4206 12.778 15.397C12.0021 16.5611 10.7606 17.3873 9.40283 17.838C6.99757 18.2511 4.63107 17.9131 2.8077 16.3734Z" fill="#AB2328"/>
</svg>
