<svg width="30" height="30" viewBox="0 0 30 30" fill="none" xmlns="http://www.w3.org/2000/svg">
<path d="M25.8655 26.3672C25.8655 27.7242 24.7615 28.8281 23.4045 28.8281C22.0476 28.8281 20.9436 27.7242 20.9436 26.3672C20.9436 25.0434 21.9943 23.961 23.3056 23.9088C23.3378 23.9143 23.3707 23.9177 23.4045 23.9177C23.4383 23.9177 23.4713 23.9142 23.5035 23.9088C24.8146 23.961 25.8655 25.0434 25.8655 26.3672ZM23.4045 9.5298L27.0034 13.1287L23.4315 16.7006C23.4225 16.7002 23.4137 16.6992 23.4045 16.6992C23.3954 16.6992 23.3865 16.7002 23.3775 16.7006L19.8056 13.1287L23.4045 9.5298ZM13.4254 13.7072C13.1023 13.7072 12.8395 13.4444 12.8395 13.1213C12.8395 12.7982 13.1023 12.5354 13.4254 12.5354C13.7484 12.5354 14.0114 12.7982 14.0114 13.1213C14.0114 13.4444 13.7484 13.7072 13.4254 13.7072ZM8.73047 1.17188H18.1055V4.6875H8.73047V1.17188ZM3.63281 3.51562C3.30973 3.51562 3.04688 3.25277 3.04688 2.92969C3.04688 2.6066 3.30973 2.34375 3.63281 2.34375C3.9559 2.34375 4.21875 2.6066 4.21875 2.92969C4.21875 3.25277 3.9559 3.51562 3.63281 3.51562ZM6.09375 15.5822H1.17188V10.6604H6.09375V15.5822ZM28.2464 13.5431C28.4752 13.3143 28.4752 12.9432 28.2464 12.7144L23.8188 8.28686C23.59 8.05805 23.219 8.05805 22.9901 8.28686L18.7342 12.5428H15.085C14.9086 12.0383 14.5085 11.6382 14.0039 11.4618V5.85938H18.6914C19.015 5.85938 19.2774 5.59705 19.2774 5.27344V0.585938C19.2774 0.262324 19.015 0 18.6914 0H8.14454C7.82092 0 7.5586 0.262324 7.5586 0.585938V2.34375H5.28985C5.04797 1.66178 4.39664 1.17188 3.63281 1.17188C2.66356 1.17188 1.875 1.96043 1.875 2.92969C1.875 3.69352 2.3649 4.34484 3.04688 4.58672V9.4885H0.585938C0.262324 9.4885 0 9.75082 0 10.0744V16.1682C0 16.4917 0.262324 16.7541 0.585938 16.7541H3.04688V18.8999C3.04688 19.2234 3.3092 19.4858 3.63281 19.4858C3.95643 19.4858 4.21875 19.2234 4.21875 18.8999V16.7541H6.67969C7.0033 16.7541 7.26563 16.4917 7.26563 16.1682V10.0744C7.26563 9.75082 7.0033 9.4885 6.67969 9.4885H4.21875V4.58672C4.71733 4.40988 5.11301 4.0142 5.28985 3.51562H7.5586V5.27344C7.5586 5.59705 7.82092 5.85938 8.14454 5.85938H12.832V11.4668C12.1539 11.7107 11.6676 12.3602 11.6676 13.1213C11.6676 14.0906 12.4562 14.8791 13.4254 14.8791C14.1865 14.8791 14.8359 14.3928 15.0799 13.7147H18.7342L22.8186 17.799V22.7823C21.0931 23.0634 19.7717 24.5636 19.7717 26.3672C19.7717 28.3703 21.4014 30 23.4045 30C25.4077 30 27.0373 28.3703 27.0373 26.3672C27.0373 24.5636 25.7159 23.0634 23.9905 22.7823V17.799L28.2464 13.5431Z" transform="translate(28.418) scale(-1 1)" fill="white"/>
<path d="M1.0002 1.0002C1.10918 0.891211 1.17188 0.740039 1.17188 0.585938C1.17188 0.431836 1.10918 0.280664 1.0002 0.171738C0.891211 0.062754 0.740039 1.43051e-07 0.585938 1.43051e-07C0.431836 1.43051e-07 0.280664 0.0626954 0.17168 0.171738C0.0626954 0.280664 0 0.431836 0 0.585938C0 0.740039 0.0626954 0.891211 0.17168 1.0002C0.280664 1.10977 0.431836 1.17188 0.585938 1.17188C0.740039 1.17182 0.891211 1.10977 1.0002 1.0002Z" transform="translate(25.3711 20.4746) scale(-1 1)" fill="white"/>
<path d="M0.585939 0C0.431251 0 0.280665 0.0626363 0.17168 0.171679C0.0621098 0.280664 7.86782e-07 0.431836 7.86782e-07 0.585938C7.86782e-07 0.740039 0.0621098 0.891211 0.17168 1.00014C0.280665 1.10912 0.431251 1.17188 0.585939 1.17188C0.74004 1.17188 0.891211 1.10918 1.0002 1.00014C1.10918 0.891211 1.17188 0.740039 1.17188 0.585938C1.17188 0.431836 1.10918 0.280664 1.0002 0.171679C0.891211 0.0626949 0.74004 0 0.585939 0Z" transform="translate(11.0938 26.0156) scale(-1 1)" fill="white"/>
<path d="M9.25782 6.09375H1.17188V1.17188H9.25782V6.09375ZM17.2266 3.28125H10.4297V0.585938C10.4297 0.262383 10.1674 0 9.84375 0H0.585938C0.262324 0 0 0.262383 0 0.585938V6.67969C0 7.00324 0.262324 7.26562 0.585938 7.26562H9.84375C10.1674 7.26562 10.4297 7.00324 10.4297 6.67969V4.45312H17.2266C17.5502 4.45312 17.8125 4.19074 17.8125 3.86719C17.8125 3.54363 17.5502 3.28125 17.2266 3.28125Z" transform="translate(30 22.7344) scale(-1 1)" fill="white"/>
<path d="M1.0002 1.00014C1.10918 0.891211 1.17188 0.740039 1.17188 0.585938C1.17188 0.431836 1.10918 0.280664 1.0002 0.171679C0.891212 0.0626949 0.740039 0 0.585938 0C0.431836 0 0.280664 0.0626363 0.171679 0.171679C0.0626949 0.280664 0 0.431836 0 0.585938C0 0.740039 0.0626949 0.891211 0.171679 1.00014C0.280664 1.10912 0.431836 1.17188 0.585938 1.17188C0.740039 1.17188 0.891212 1.10918 1.0002 1.00014Z" transform="translate(18.6328 23.5547) scale(-1 1)" fill="white"/>
<path d="M1.0002 1.00014C1.10918 0.891211 1.17188 0.740039 1.17188 0.585938C1.17188 0.431836 1.10918 0.280664 1.0002 0.171679C0.891211 0.0626949 0.74004 0 0.585938 0C0.431836 0 0.280664 0.0626363 0.17168 0.171679C0.0621093 0.280664 2.86102e-07 0.431836 2.86102e-07 0.585938C2.86102e-07 0.740039 0.0621093 0.891211 0.17168 1.00014C0.280664 1.10912 0.431836 1.17188 0.585938 1.17188C0.74004 1.17188 0.890625 1.10918 1.0002 1.00014Z" transform="translate(16.1055 23.5547) scale(-1 1)" fill="white"/>
<path d="M1.0002 1.00014C1.10977 0.891211 1.17188 0.740039 1.17188 0.585938C1.17188 0.431836 1.10977 0.280664 1.0002 0.171679C0.891212 0.0626949 0.740625 0 0.585938 0C0.431836 0 0.280664 0.0626363 0.171679 0.171679C0.0626949 0.280664 0 0.431836 0 0.585938C0 0.740039 0.0626949 0.891211 0.171679 1.00014C0.280664 1.10912 0.431836 1.17188 0.585938 1.17188C0.740625 1.17188 0.891212 1.10918 1.0002 1.00014Z" transform="translate(13.5791 23.5547) scale(-1 1)" fill="white"/>
<path d="M1.00078 0.171094C0.891211 0.0621095 0.740625 -1.60933e-07 0.585938 -1.60933e-07C0.431836 -1.60933e-07 0.280664 0.0621095 0.171679 0.171094C0.0626949 0.280078 0 0.43125 0 0.585351C0 0.740039 0.0626949 0.890625 0.171679 0.99961C0.280664 1.10918 0.431836 1.17188 0.585938 1.17188C0.740625 1.17188 0.891211 1.10918 1.00078 0.99961C1.10977 0.890625 1.17188 0.740039 1.17188 0.585351C1.17188 0.43125 1.10977 0.280664 1.00078 0.171094Z" transform="translate(13.5791 7.11133) scale(-1 1)" fill="white"/>
<path d="M0.585938 0C0.431836 0 0.280664 0.0626949 0.171679 0.171679C0.0626949 0.280664 0 0.431836 0 0.585938C0 0.740039 0.0626949 0.891211 0.171679 1.0002C0.280664 1.10918 0.431836 1.17188 0.585938 1.17188C0.740625 1.17188 0.891212 1.10918 1.0002 1.0002C1.10977 0.891211 1.17188 0.740039 1.17188 0.585938C1.17188 0.431836 1.10977 0.280664 1.0002 0.171679C0.891212 0.0626949 0.740625 0 0.585938 0Z" transform="translate(13.5791 9.63867) scale(-1 1)" fill="white"/>
</svg>
