<svg width="8" height="14" viewBox="0 0 8 14" fill="none" xmlns="http://www.w3.org/2000/svg">
<path d="M6.96353 0H1.03647C0.465294 0 -6.95621e-08 0.461417 -6.95621e-08 1.02754V12.9725C-6.95621e-08 13.5386 0.465294 14 1.03647 14H6.96353C7.53588 14 8 13.5386 8 12.9725V1.02754C8 0.461417 7.53588 0 6.96353 0V0ZM0.471176 1.86608H7.53V10.7336H0.471176V1.86608ZM1.03647 0.46725H6.96353C7.27618 0.46725 7.53 0.718958 7.53 1.02754V1.40029H0.471176V1.02754C0.471176 0.718958 0.725 0.46725 1.03647 0.46725ZM6.96353 13.5327H1.03647C0.725 13.5327 0.471176 13.281 0.471176 12.9725V11.1994H7.53V12.9725C7.53 13.281 7.27618 13.5327 6.96353 13.5327Z" fill="black"/>
<path d="M0.940882 3.82741e-07C0.42147 3.82741e-07 1.75027e-07 0.419416 1.75027e-07 0.933041C1.75027e-07 1.44812 0.42147 1.86754 0.940882 1.86754C1.46029 1.86754 1.88176 1.44812 1.88176 0.933041C1.88176 0.419416 1.46029 3.82741e-07 0.940882 3.82741e-07ZM0.940882 1.40029C0.681176 1.40029 0.469706 1.19058 0.469706 0.933041C0.469706 0.676958 0.681176 0.46725 0.940882 0.46725C1.20059 0.46725 1.41088 0.676958 1.41088 0.933041C1.41088 1.19058 1.20059 1.40029 0.940882 1.40029Z" transform="translate(3.05957 11.4336)" fill="black"/>
<path d="M0.235588 0.46725H1.17647C1.30618 0.46725 1.41206 0.362542 1.41206 0.233625C1.41206 0.105 1.30618 5.5631e-10 1.17647 5.5631e-10H0.235588C0.104412 5.5631e-10 0 0.105 0 0.233625C0 0.362542 0.104412 0.46725 0.235588 0.46725Z" transform="translate(2.8252 0.701172)" fill="black"/>
<path d="M0.235294 0.46725H0.470882C0.600882 0.46725 0.70647 0.362542 0.70647 0.233625C0.70647 0.105 0.600882 5.5631e-10 0.470882 5.5631e-10H0.235294C0.105588 5.5631e-10 -1.25661e-07 0.105 -1.25661e-07 0.233625C-1.25661e-07 0.362542 0.105588 0.46725 0.235294 0.46725Z" transform="translate(4.4707 0.701172)" fill="black"/>
</svg>
