<svg width="30" height="38" viewBox="0 0 30 38" fill="none" xmlns="http://www.w3.org/2000/svg">
<path d="M28.2685 35.382C28.2685 35.6515 28.1477 35.8825 27.9463 36.075C27.745 36.2675 27.5034 36.383 27.2215 36.383H2.73826C2.45638 36.383 2.21477 36.2675 2.01342 36.1135C1.81208 35.921 1.73154 35.69 1.73154 35.4205V2.57953C1.73154 2.31003 1.85235 2.07903 2.05369 1.88652L2.09396 1.84802C2.2953 1.69402 2.53691 1.57852 2.77852 1.57852H20.8188V5.92908C20.8188 6.69909 21.1409 7.3921 21.7047 7.93111C22.2282 8.43161 22.9933 8.73962 23.7987 8.73962H28.2685V35.382ZM22.4698 2.77204L27.0201 7.12259H23.6779C23.3557 7.12259 23.0336 7.00709 22.8322 6.77609C22.6309 6.58359 22.4698 6.27558 22.4698 5.96758V2.77204ZM29.9195 7.5846L29.8792 7.5461V7.5076L22.2282 0.192503L22.1879 0.154002C22.1879 0.154002 22.1477 0.154002 22.1477 0.115502C22.1477 0.115502 22.1074 0.115502 22.1074 0.077001C21.9866 0 21.8658 2.86852e-10 21.7047 2.86852e-10H2.73826C2.01342 2.86852e-10 1.32886 0.269504 0.845638 0.73151L0.805369 0.77001C0.322148 1.23202 0 1.92503 0 2.61803V35.382C0 36.1135 0.322148 36.768 0.805369 37.23C1.28859 37.692 2.01342 38 2.73826 38H27.2617C28.0268 38 28.7114 37.692 29.1946 37.23C29.6779 36.768 30 36.075 30 35.382V7.96961C30 7.8156 29.9597 7.7001 29.9195 7.5846Z" fill="#0A050B"/>
<path d="M-1.7819e-07 -3.17234e-07V6.73643H1.50886V3.99327H3.01973C4.33852 3.99327 5.21356 3.19516 5.21356 2.00145C5.21356 0.817366 4.33852 0.0192499 3.01973 -3.17234e-07H-1.7819e-07ZM1.50886 2.76241V1.23086H2.9996C3.59386 1.23086 3.87584 1.60653 3.87584 1.9822C3.87584 2.36749 3.58379 2.75279 2.9996 2.75279L1.50886 2.76241Z" transform="translate(6.09375 15.6211)" fill="black"/>
<path d="M1.29034e-07 -3.17234e-07V6.73643H2.02248C4.71111 6.73643 5.81758 5.54407 5.82765 3.37784C5.83772 1.22124 4.71111 -3.17234e-07 2.02248 -3.17234e-07H1.29034e-07ZM4.31879 3.37784C4.29866 4.72575 3.80517 5.50557 1.98221 5.50557H1.50886V1.23086H2.04262C3.83537 1.23086 4.33893 2.03957 4.31879 3.37784Z" transform="translate(12.334 15.6211)" fill="black"/>
<path d="M4.62966 1.23086V-3.17234e-07H2.82646e-07V6.73643H1.50886V3.99327H3.74376V2.76241H1.50886V1.23086H4.62966Z" transform="translate(19.2773 15.6211)" fill="black"/>
</svg>
