<svg width="15" height="26" viewBox="0 0 15 26" fill="none" xmlns="http://www.w3.org/2000/svg">
<path d="M13.0566 0H1.94338C0.872426 0 -1.30429e-07 0.856917 -1.30429e-07 1.90829V24.0917C-1.30429e-07 25.1431 0.872426 26 1.94338 26H13.0566C14.1298 26 15 25.1431 15 24.0917V1.90829C15 0.856917 14.1298 0 13.0566 0V0ZM0.883456 3.46558H14.1187V19.9339H0.883456V3.46558ZM1.94338 0.86775H13.0566C13.6428 0.86775 14.1187 1.33521 14.1187 1.90829V2.60054H0.883456V1.90829C0.883456 1.33521 1.35937 0.86775 1.94338 0.86775ZM13.0566 25.1322H1.94338C1.35937 25.1322 0.883456 24.6648 0.883456 24.0917V20.7989H14.1187V24.0917C14.1187 24.6648 13.6428 25.1322 13.0566 25.1322Z" fill="black"/>
<path d="M1.76415 7.10805e-07C0.790257 7.10805e-07 3.28176e-07 0.778916 3.28176e-07 1.73279C3.28176e-07 2.68937 0.790257 3.46829 1.76415 3.46829C2.73805 3.46829 3.52831 2.68937 3.52831 1.73279C3.52831 0.778916 2.73805 7.10805e-07 1.76415 7.10805e-07ZM1.76415 2.60054C1.27721 2.60054 0.880699 2.21108 0.880699 1.73279C0.880699 1.25721 1.27721 0.867749 1.76415 0.867749C2.2511 0.867749 2.6454 1.25721 2.6454 1.73279C2.6454 2.21108 2.2511 2.60054 1.76415 2.60054Z" transform="translate(5.73633 21.2324)" fill="black"/>
<path d="M0.441728 0.86775H2.20588C2.44908 0.86775 2.64761 0.673292 2.64761 0.433875C2.64761 0.195 2.44908 1.03315e-09 2.20588 1.03315e-09H0.441728C0.195772 1.03315e-09 0 0.195 0 0.433875C0 0.673292 0.195772 0.86775 0.441728 0.86775Z" transform="translate(5.29688 1.30078)" fill="black"/>
<path d="M0.441177 0.86775H0.882904C1.12665 0.86775 1.32463 0.673292 1.32463 0.433875C1.32463 0.195 1.12665 1.03315e-09 0.882904 1.03315e-09H0.441177C0.197978 1.03315e-09 -2.35614e-07 0.195 -2.35614e-07 0.433875C-2.35614e-07 0.673292 0.197978 0.86775 0.441177 0.86775Z" transform="translate(8.38281 1.30078)" fill="black"/>
</svg>
