<svg width="14" height="15" viewBox="0 0 14 15" fill="none" xmlns="http://www.w3.org/2000/svg">
<path d="M11.0704 7.86272C10.7832 7.56436 10.4371 7.4048 10.0702 7.4048C9.70624 7.4048 9.35703 7.56133 9.05824 7.85984L8.12309 8.79057C8.04607 8.74916 7.96921 8.71079 7.89524 8.67241C7.78874 8.61919 7.68806 8.56896 7.60221 8.51573C6.72635 7.96026 5.93036 7.23626 5.16691 6.29962C4.79702 5.83273 4.54849 5.4397 4.36802 5.04095C4.6106 4.81934 4.83553 4.58875 5.05446 4.36714C5.13743 4.28448 5.22021 4.19879 5.30314 4.11598C5.92444 3.49558 5.92444 2.6918 5.30314 2.07125L4.49515 1.26459C4.40357 1.17299 4.30877 1.07847 4.22007 0.983989C4.04249 0.800754 3.8561 0.611609 3.6638 0.434284C3.37669 0.150622 3.0334 1.91619e-08 2.67246 1.91619e-08C2.31138 1.91619e-08 1.96231 0.150622 1.6664 0.434284L1.66048 0.440193L0.654279 1.45377C0.275551 1.83191 0.0595371 2.29286 0.0121545 2.82772C-0.0587899 3.69052 0.195656 4.49427 0.390993 5.02015C0.870257 6.31144 1.58651 7.50807 2.65471 8.79057C3.95075 10.3359 5.5102 11.5562 7.29158 12.4161C7.9721 12.7382 8.88065 13.1193 9.89551 13.1843C9.9578 13.1873 10.0228 13.1902 10.082 13.1902C10.7656 13.1902 11.3397 12.9451 11.7894 12.4574C11.7924 12.4515 11.7983 12.4486 11.8013 12.4427C11.9552 12.2566 12.1326 12.088 12.3192 11.9079C12.4463 11.7866 12.5765 11.6597 12.7038 11.5266C12.9968 11.2224 13.1505 10.8677 13.1505 10.5043C13.1505 10.138 12.9938 9.78623 12.695 9.49075L11.0704 7.86272ZM12.1297 10.9741C12.1267 10.9741 12.1267 10.9771 12.1297 10.9741C12.0143 11.0983 11.8959 11.2106 11.7687 11.3346C11.5764 11.5179 11.381 11.7099 11.1976 11.9256C10.8987 12.2447 10.5466 12.3954 10.0849 12.3954C10.0406 12.3954 9.9932 12.3954 9.94885 12.3925C9.07007 12.3363 8.25329 11.9935 7.64079 11.7011C5.9659 10.8914 4.49515 9.74194 3.27308 8.28529C2.26414 7.07079 1.58939 5.948 1.14264 4.74244C0.867372 4.00676 0.766799 3.43338 0.811186 2.89276C0.840777 2.54694 0.973862 2.26039 1.2195 2.01515L2.22859 1.00748C2.37352 0.871596 2.52739 0.797725 2.67838 0.797725C2.86476 0.797725 3.0156 0.910119 3.11041 1.0046L3.11921 1.01343C3.29983 1.18192 3.47134 1.35622 3.65192 1.54234C3.74369 1.63697 3.83835 1.73148 3.93296 1.82903L4.7408 2.63569C5.05446 2.9489 5.05446 3.23847 4.7408 3.55168C4.65498 3.63741 4.57217 3.7231 4.48635 3.80576C4.23782 4.05984 4.00102 4.2963 3.74369 4.52674C3.73777 4.53265 3.73185 4.53567 3.72882 4.54144C3.47438 4.79566 3.52176 5.04383 3.57491 5.21218L3.5839 5.23888C3.79396 5.74704 4.08987 6.22575 4.53965 6.79607L4.54257 6.79895C5.35936 7.80355 6.22035 8.58672 7.17022 9.18647C7.29158 9.26337 7.41582 9.32543 7.53419 9.38441C7.64079 9.43767 7.74136 9.48786 7.82718 9.54109C7.83905 9.54704 7.85089 9.55583 7.86272 9.56174C7.96329 9.61193 8.05795 9.63561 8.1556 9.63561C8.40124 9.63561 8.55511 9.48196 8.60538 9.43176L9.6174 8.42122C9.71808 8.32064 9.87791 8.1996 10.0643 8.1996C10.2478 8.1996 10.3986 8.31473 10.4904 8.41531L12.1267 10.0492C12.4316 10.3506 12.4316 10.661 12.1297 10.9741Z" transform="translate(0 0.8125)" fill="black"/>
<path d="M0.328886 0.791329C1.10406 0.921341 1.80844 1.28781 2.37063 1.84923C2.93286 2.41057 3.29683 3.11377 3.43002 3.88797C3.46254 4.08306 3.63117 4.21895 3.82362 4.21895C3.84718 4.21895 3.86797 4.21592 3.89168 4.21304C4.11058 4.17754 4.25561 3.97078 4.2201 3.75209C4.06027 2.81541 3.61641 1.96147 2.93878 1.28478C2.2611 0.608094 1.40592 0.164872 0.46789 0.0053121C0.248991 -0.0300348 0.0448498 0.114677 0.00627055 0.330379C-0.0321608 0.54608 0.109839 0.755835 0.328886 0.791329Z" transform="translate(7.2373 2.53906)" fill="black"/>
<path d="M6.64251 6.17568C6.37926 4.63338 5.65117 3.22985 4.53271 2.11282C3.41424 0.99597 2.00867 0.269123 0.463944 0.00607083C0.24793 -0.0323048 0.0437889 0.115436 0.00535757 0.331137C-0.0301886 0.549719 0.114733 0.753749 0.333781 0.792125C1.71276 1.02555 2.97038 1.67857 3.97051 2.67438C4.97065 3.67307 5.62169 4.92886 5.8555 6.30584C5.88801 6.50075 6.05661 6.63667 6.24895 6.63667C6.27262 6.63667 6.29345 6.63379 6.31697 6.63076C6.53313 6.59829 6.68109 6.39138 6.64251 6.17568Z" transform="translate(7.35156)" fill="black"/>
</svg>
