<svg width="22" height="23" viewBox="0 0 22 23" fill="none" xmlns="http://www.w3.org/2000/svg">
<path d="M17.3962 12.3557C16.9451 11.8868 16.4011 11.6361 15.8246 11.6361C15.2526 11.6361 14.7039 11.8821 14.2343 12.3512L12.7648 13.8137C12.6438 13.7487 12.523 13.6884 12.4068 13.628C12.2394 13.5444 12.0812 13.4655 11.9463 13.3818C10.57 12.509 9.31911 11.3712 8.11941 9.89939C7.53816 9.1657 7.14762 8.54808 6.86403 7.92147C7.24521 7.57323 7.59867 7.21088 7.94271 6.86263C8.07308 6.73274 8.20317 6.59808 8.33349 6.46796C9.30981 5.49304 9.30981 4.22996 8.33349 3.25481L7.0638 1.9872C6.91988 1.84326 6.77091 1.69473 6.63153 1.54627C6.35247 1.25833 6.05957 0.961098 5.75738 0.682444C5.30622 0.236691 4.76676 3.01115e-08 4.19957 3.01115e-08C3.63215 3.01115e-08 3.08363 0.236691 2.61863 0.682444L2.60933 0.691731L1.02815 2.28449C0.433009 2.87871 0.0935582 3.60306 0.0190999 4.44355C-0.092384 5.79938 0.307458 7.06241 0.614417 7.8888C1.36754 9.91796 2.49308 11.7984 4.17167 13.8137C6.20832 16.2422 8.65887 18.1598 11.4582 19.511C12.5276 20.0171 13.9553 20.6161 15.5501 20.7181C15.6479 20.7228 15.7501 20.7274 15.8432 20.7274C16.9174 20.7274 17.8194 20.3422 18.5262 19.5758C18.5308 19.5666 18.5401 19.562 18.5449 19.5527C18.7867 19.2603 19.0655 18.9954 19.3587 18.7123C19.5584 18.5218 19.763 18.3223 19.963 18.1133C20.4235 17.6351 20.6651 17.0778 20.6651 16.5068C20.6651 15.9311 20.4187 15.3783 19.9492 14.914L17.3962 12.3557ZM19.061 17.2449C19.0562 17.2449 19.0562 17.2497 19.061 17.2449C18.8796 17.4402 18.6936 17.6166 18.4936 17.8115C18.1914 18.0995 17.8844 18.4012 17.5962 18.7402C17.1265 19.2417 16.5732 19.4784 15.8477 19.4784C15.778 19.4784 15.7036 19.4784 15.6339 19.4739C14.2529 19.3856 12.9694 18.847 12.0069 18.3874C9.37497 17.115 7.0638 15.3087 5.14341 13.0197C3.55793 11.1112 2.49761 9.34684 1.79558 7.45239C1.36301 6.29633 1.20497 5.3953 1.27472 4.54576C1.32122 4.00232 1.53035 3.55204 1.91636 3.16665L3.50207 1.58318C3.7298 1.36965 3.97161 1.25357 4.20887 1.25357C4.50176 1.25357 4.7388 1.43018 4.88777 1.57865L4.90161 1.59252C5.18543 1.85731 5.45496 2.1312 5.73872 2.42367C5.88293 2.57237 6.03167 2.7209 6.18036 2.87418L7.44981 4.1418C7.94271 4.63398 7.94271 5.08902 7.44981 5.58121C7.31496 5.71592 7.18482 5.85058 7.04997 5.98047C6.65943 6.37973 6.28731 6.75131 5.88293 7.11343C5.87363 7.12272 5.86433 7.12747 5.85957 7.13653C5.45972 7.53602 5.53418 7.926 5.61771 8.19055L5.63183 8.23251C5.96192 9.03104 6.42693 9.78331 7.13373 10.6795L7.13832 10.684C8.42184 12.2627 9.77481 13.4934 11.2675 14.4359C11.4582 14.5567 11.6534 14.6542 11.8394 14.7469C12.0069 14.8306 12.165 14.9095 12.2998 14.9931C12.3185 15.0025 12.3371 15.0163 12.3557 15.0256C12.5137 15.1044 12.6625 15.1416 12.8159 15.1416C13.2019 15.1416 13.4437 14.9002 13.5227 14.8213L15.113 13.2333C15.2712 13.0753 15.5224 12.8851 15.8153 12.8851C16.1036 12.8851 16.3407 13.066 16.4848 13.224L19.0562 15.7916C19.5353 16.2653 19.5353 16.753 19.061 17.2449Z" transform="translate(0 1.27539)" fill="black"/>
<path d="M0.516821 1.24352C1.73495 1.44782 2.84182 2.0237 3.72527 2.90592C4.60877 3.78803 5.18072 4.89307 5.39003 6.10966C5.44112 6.41623 5.70611 6.62976 6.00854 6.62976C6.04556 6.62976 6.07823 6.625 6.11549 6.62048C6.45947 6.5647 6.68738 6.23979 6.63158 5.89613C6.38042 4.42421 5.68292 3.08231 4.61807 2.01894C3.55316 0.955574 2.20931 0.259084 0.735254 0.00834756C0.39127 -0.0471975 0.0704782 0.180207 0.00985371 0.519165C-0.0505382 0.858124 0.172604 1.18774 0.516821 1.24352Z" transform="translate(11.373 3.99023)" fill="black"/>
<path d="M10.4382 9.70463C10.0245 7.28101 8.8804 5.07546 7.12281 3.32013C5.36523 1.56509 3.15647 0.422907 0.729053 0.00953986C0.389603 -0.0507646 0.068811 0.181399 0.00841903 0.520357C-0.0474392 0.863843 0.180295 1.18446 0.524511 1.24477C2.69147 1.61158 4.66772 2.63775 6.23937 4.20259C7.81101 5.77195 8.83407 7.74534 9.20148 9.90916C9.25257 10.2154 9.51751 10.429 9.81976 10.429C9.85696 10.429 9.88968 10.4245 9.92665 10.4197C10.2663 10.3687 10.4988 10.0436 10.4382 9.70463Z" transform="translate(11.5527)" fill="black"/>
</svg>
