<svg width="36" height="36" viewBox="0 0 36 36" fill="none" xmlns="http://www.w3.org/2000/svg">
<path fill-rule="evenodd" clip-rule="evenodd" d="M20.2512 0.31425C18.1042 -0.10475 15.8963 -0.10475 13.7493 0.31425L12.9503 4.01725C12.1683 4.26125 11.4093 4.57525 10.6833 4.95625L7.50025 2.90225C5.68625 4.12525 4.12525 5.68625 2.90225 7.50025L4.95625 10.6833C4.57525 11.4093 4.26125 12.1683 4.01725 12.9503L0.31425 13.7493C-0.10475 15.8963 -0.10475 18.1042 0.31425 20.2512L4.01725 21.0502C4.26125 21.8322 4.57525 22.5912 4.95625 23.3172L2.90225 26.5002C4.12525 28.3142 5.68625 29.8752 7.50025 31.0982L10.6833 29.0442C11.4093 29.4252 12.1683 29.7393 12.9503 29.9833L13.7493 33.6863C15.8963 34.1053 18.1042 34.1053 20.2512 33.6863L21.0502 29.9833C21.8322 29.7393 22.5912 29.4252 23.3172 29.0442L26.5002 31.0982C28.3142 29.8752 29.8752 28.3142 31.0982 26.5002L29.0442 23.3172C29.4252 22.5912 29.7393 21.8322 29.9833 21.0502L33.6863 20.2512C34.1053 18.1042 34.1053 15.8963 33.6863 13.7493L29.9833 12.9503C29.7393 12.1683 29.4252 11.4093 29.0442 10.6833L31.0982 7.50025C29.8752 5.68625 28.3142 4.12525 26.5002 2.90225L23.3172 4.95625C22.5912 4.57525 21.8322 4.26125 21.0502 4.01725L20.2512 0.31425V0.31425Z" transform="translate(1 1)" stroke="white" stroke-width="2" stroke-miterlimit="1.5" stroke-linecap="round" stroke-linejoin="round"/>
<path d="M8.08716e-07 9.00269e-07V6.144L2.998 9.142L5.996 6.144V0.0339994" transform="translate(15.002 11.8555)" stroke="white" stroke-width="2" stroke-miterlimit="1.5" stroke-linecap="round" stroke-linejoin="round"/>
<path d="M10.529 9.00269e-07C13.283 1.095 14.908 3.593 14.908 6.736C14.908 10.85 11.568 14.19 7.454 14.19C3.34 14.19 -4.73022e-07 10.85 -4.73022e-07 6.736C-4.73022e-07 3.642 1.77 1.127 4.456 9.00269e-07" transform="translate(10.5459 11.8555)" stroke="white" stroke-width="2" stroke-miterlimit="1.5" stroke-linecap="round" stroke-linejoin="round"/>
<path d="M1 1.43433e-06L0 5.169" transform="translate(14 26.0469)" stroke="white" stroke-width="2" stroke-miterlimit="1.5" stroke-linecap="round" stroke-linejoin="round"/>
<path d="M0 1.43433e-06L1 5.169" transform="translate(21 26.0469)" stroke="white" stroke-width="2" stroke-miterlimit="1.5" stroke-linecap="round" stroke-linejoin="round"/>
</svg>
