<svg width="20" height="20" viewBox="0 0 20 20" fill="none" xmlns="http://www.w3.org/2000/svg">
<path d="M8.95115 20C9.89015 20 9.57415 18.027 9.57415 18.027C9.57415 18.027 11.5812 12.585 13.5012 11.134C13.9122 10.71 14.1702 10.24 14.3322 9.85602C14.3692 9.76202 14.4022 9.67202 14.4321 9.59002C14.5611 9.33302 14.8351 8.93702 15.4212 8.58902L13.5012 0.38202C13.5012 0.38202 10.5302 0.00201953 7.55015 0.0630195C6.35815 -0.0309805 5.09415 -0.0389808 4.08915 0.173019C0.673152 0.888019 1.52915 3.22902 1.52915 3.22902C-0.311849 4.59002 0.735151 6.28902 0.735151 6.28902C-0.901849 7.96802 0.706151 9.37802 0.706151 9.37802C0.706151 9.37802 -0.178849 10.734 0.964151 11.76C2.38915 13.043 6.25815 12.189 6.25815 12.189C6.52815 12.144 6.81515 12.086 7.12215 12.013C7.12215 12.013 8.46015 11.4 7.12215 15.392C5.78015 19.383 8.01115 20 8.95115 20ZM17.2201 8.47502C16.8172 8.47502 16.4181 8.15602 16.3351 7.76802L14.8812 0.97402C14.7972 0.58602 15.0592 0.26702 15.4662 0.27102H20.0002L19.9961 8.47502H17.2201Z" transform="translate(20 20) rotate(180)" fill="#27AE60"/>
</svg>
