<svg width="20" height="16" viewBox="0 0 20 16" fill="none" xmlns="http://www.w3.org/2000/svg">
<path d="M1.82632 4.06247C3.76739 2.44081 5.3018 1.15809 9.4617 3.44597C11.4605 4.54383 13.0727 4.9587 14.4152 4.9587C16.7643 4.9587 18.2876 3.68651 19.6037 2.58541C20.0737 2.19378 20.1342 1.49701 19.7392 1.03025C19.3434 0.563749 18.6423 0.503478 18.1737 0.896188C16.2327 2.51892 14.6994 3.80057 10.5372 1.51269C5.04041 -1.50872 2.46547 0.644021 0.396352 2.37324C-0.0736377 2.76487 -0.134192 3.46164 0.260521 3.92841C0.655512 4.39491 1.35661 4.45518 1.82632 4.06247ZM18.1737 6.41684C16.2327 8.03957 14.6994 9.32122 10.5372 7.03334C5.04041 4.01166 2.46547 6.1644 0.396352 7.89389C-0.0736377 8.2866 -0.134192 8.9823 0.260521 9.44906C0.655512 9.91556 1.35661 9.97583 1.82632 9.58312C3.76739 7.96146 5.3018 6.67874 9.4617 8.96635C11.4605 10.0645 13.0727 10.4794 14.4152 10.4794C16.7643 10.4794 18.2876 9.20716 19.6037 8.10714C20.0737 7.71443 20.1342 7.01766 19.7392 6.55089C19.3445 6.08413 18.6434 6.02413 18.1737 6.41684ZM18.1737 11.9375C16.2327 13.5602 14.6994 14.8419 10.5372 12.554C5.04041 9.53231 2.46547 11.6851 0.396352 13.4145C-0.0736377 13.8073 -0.134192 14.5029 0.260521 14.9705C0.655512 15.4362 1.35661 15.4976 1.82632 15.1046C3.76739 13.4821 5.30068 12.2002 9.4617 14.487C11.4605 15.5862 13.0727 16 14.4152 16C16.7643 16 18.2876 14.7278 19.6037 13.6278C20.0737 13.2348 20.1342 12.538 19.7392 12.0715C19.3434 11.6048 18.6434 11.5448 18.1737 11.9375Z" fill="#27AE60"/>
</svg>
